<svg width="34" height="34" viewBox="0 0 34 34" fill="none" xmlns="http://www.w3.org/2000/svg">
<path fill-rule="evenodd" clip-rule="evenodd" d="M0 17C0 9.48285 0 5.72427 2.1056 3.21491C2.44238 2.81356 2.81356 2.44238 3.21491 2.1056C5.72427 0 9.48285 0 17 0C24.5172 0 28.2757 0 30.7851 2.1056C31.1864 2.44238 31.5576 2.81356 31.8944 3.21491C34 5.72427 34 9.48285 34 17C34 24.5172 34 28.2757 31.8944 30.7851C31.5576 31.1864 31.1864 31.5576 30.7851 31.8944C28.2757 34 24.5172 34 17 34C9.48285 34 5.72427 34 3.21491 31.8944C2.81356 31.5576 2.44238 31.1864 2.1056 30.7851C0 28.2757 0 24.5172 0 17ZM26 17C26 21.9706 21.9706 26 17 26C12.0294 26 8 21.9706 8 17C8 12.0294 12.0294 8 17 8C21.9706 8 26 12.0294 26 17ZM17 22C19.7614 22 22 19.7614 22 17C22 14.2386 19.7614 12 17 12C14.2386 12 12 14.2386 12 17C12 19.7614 14.2386 22 17 22ZM26.5 9C27.8807 9 29 7.88071 29 6.5C29 5.11929 27.8807 4 26.5 4C25.1193 4 24 5.11929 24 6.5C24 7.88071 25.1193 9 26.5 9Z" fill="white" style="fill:white;fill-opacity:1;"/>
</svg>
