<?xml version="1.0" encoding="utf-8"?><svg xmlns="http://www.w3.org/2000/svg" xmlns:xlink="http://www.w3.org/1999/xlink"><symbol fill="none" viewBox="0 0 34 34" id="fb"><path d="M34 17c0-9.35-7.65-17-17-17S0 7.65 0 17c0 8.5 6.162 15.513 14.238 16.788v-11.9h-4.25V17h4.25v-3.825c0-4.25 2.55-6.588 6.375-6.588 1.912 0 3.825.426 3.825.426v4.25h-2.125c-2.125 0-2.763 1.274-2.763 2.55V17h4.675l-.85 4.887h-4.038V34A17.151 17.151 0 0 0 34 17z" fill="#fff"/></symbol><symbol fill="none" viewBox="0 0 34 34" id="inst"><path fill-rule="evenodd" clip-rule="evenodd" d="M0 17C0 9.483 0 5.724 2.106 3.215a9.001 9.001 0 0 1 1.109-1.11C5.725 0 9.483 0 17 0s11.276 0 13.785 2.106c.401.336.773.708 1.11 1.109C34 5.725 34 9.483 34 17s0 11.276-2.106 13.785a9.01 9.01 0 0 1-1.109 1.11C28.275 34 24.517 34 17 34S5.724 34 3.215 31.894a9.006 9.006 0 0 1-1.11-1.109C0 28.275 0 24.517 0 17zm26 0a9 9 0 1 1-18 0 9 9 0 0 1 18 0zm-9 5a5 5 0 1 0 0-10 5 5 0 0 0 0 10zm9.5-13a2.5 2.5 0 1 0 0-5 2.5 2.5 0 0 0 0 5z" fill="#fff"/></symbol><symbol fill="none" viewBox="0 0 34 34" id="tt"><path fill-rule="evenodd" clip-rule="evenodd" d="M17 34c9.389 0 17-7.611 17-17S26.389 0 17 0 0 7.611 0 17s7.611 17 17 17zm4.876-27.084A4.883 4.883 0 0 1 21.789 6h-3.743l-.005 14.467c-.038 1.012-.594 1.9-1.419 2.424a3.22 3.22 0 0 1-1.723.496c-.855 0-1.734-.446-2.346-1.114-.49-.535-.81-1.212-.81-1.92 0-.835.353-1.593.922-2.142a3.198 3.198 0 0 1 3.155-.748v-3.686a7.274 7.274 0 0 0-.93-.064c-3.8-.004-6.89 2.975-6.89 6.64 0 2.249 1.163 4.239 2.944 5.442A7.043 7.043 0 0 0 14.894 27c3.8 0 6.895-2.984 6.895-6.646v-7.338A9.137 9.137 0 0 0 27 14.63v-3.61a5.373 5.373 0 0 1-1.942-.36 5.279 5.279 0 0 1-.896-.454 5.036 5.036 0 0 1-2.286-3.291z" fill="#fff"/></symbol></svg>