<svg width="80" height="80" viewBox="0 0 80 80" fill="none" xmlns="http://www.w3.org/2000/svg">
<path d="M40 59.8311C40.7763 59.8311 41.4252 59.5689 41.9467 59.0444C42.4711 58.52 42.7333 57.8696 42.7333 57.0933C42.7333 56.32 42.4711 55.6711 41.9467 55.1467C41.4252 54.6222 40.7763 54.36 40 54.36C39.2237 54.36 38.5748 54.6222 38.0533 55.1467C37.5289 55.6711 37.2667 56.32 37.2667 57.0933C37.2667 57.8696 37.5289 58.52 38.0533 59.0444C38.5748 59.5689 39.2237 59.8311 40 59.8311ZM37.7778 45.1289H42.2222V18.4622H37.7778V45.1289ZM40.0133 80C34.4844 80 29.2844 78.9511 24.4133 76.8533C19.5452 74.7526 15.3096 71.9022 11.7067 68.3022C8.1037 64.7052 5.25185 60.4741 3.15111 55.6089C1.05037 50.7437 0 45.5452 0 40.0133C0 34.4844 1.04889 29.2844 3.14667 24.4133C5.24741 19.5452 8.09778 15.3096 11.6978 11.7067C15.2948 8.1037 19.5259 5.25185 24.3911 3.15111C29.2563 1.05037 34.4548 0 39.9867 0C45.5156 0 50.7156 1.04889 55.5867 3.14667C60.4548 5.24741 64.6904 8.09778 68.2933 11.6978C71.8963 15.2948 74.7482 19.5259 76.8489 24.3911C78.9496 29.2563 80 34.4548 80 39.9867C80 45.5156 78.9511 50.7156 76.8533 55.5867C74.7526 60.4548 71.9022 64.6904 68.3022 68.2933C64.7052 71.8963 60.4741 74.7482 55.6089 76.8489C50.7437 78.9496 45.5452 80 40.0133 80Z" fill="#D33A3A" style="fill:#D33A3A;fill:color(display-p3 0.8271 0.2274 0.2274);fill-opacity:1;"/>
</svg>
