<svg width="34" height="22" viewBox="0 0 34 22" fill="none" xmlns="http://www.w3.org/2000/svg">
<g clip-path="url(#clip0_47_1775)">
<path d="M0 10.7304C0.780788 9.74764 1.50985 8.71491 2.35468 7.7872C4.27833 5.67422 6.44581 3.8513 8.90887 2.40848C10.9138 1.23321 13.0419 0.383015 15.3571 0.100451C17.9507 -0.217121 20.4409 0.23048 22.8325 1.27072C25.9039 2.60852 28.5345 4.59897 30.8695 6.99702C31.8399 7.99224 32.7266 9.07249 33.6256 10.1377C34.1355 10.7404 34.1158 11.243 33.6305 11.8681C31.2291 14.9538 28.4434 17.6019 25.0813 19.5899C23.069 20.7801 20.9286 21.6253 18.601 21.9054C15.9704 22.223 13.4507 21.7529 11.0369 20.6801C8.01724 19.3398 5.42365 17.3719 3.12069 15.0063C2.15764 14.0186 1.28571 12.9384 0.384236 11.8906C0.226601 11.7081 0.128079 11.478 0 11.2705C0 11.0904 0 10.9104 0 10.7304ZM2.55911 10.9879C2.62315 11.0704 2.66502 11.123 2.7069 11.173C4.16995 12.9259 5.7734 14.5312 7.57636 15.924C9.42611 17.3519 11.4113 18.5196 13.6552 19.1998C15.234 19.6774 16.8399 19.8399 18.4704 19.6099C20.5567 19.3173 22.4655 18.5146 24.2586 17.4169C26.6872 15.934 28.7685 14.0336 30.6601 11.9056C30.9236 11.6106 31.17 11.298 31.4434 10.9729C30.7956 10.2603 30.1921 9.5601 29.5493 8.89745C27.3522 6.63444 24.9187 4.7015 22.0296 3.4162C18.6798 1.92587 15.3276 1.91586 11.9803 3.4037C8.19704 5.08658 5.2266 7.81971 2.56158 10.9879H2.55911Z" fill="white" style="fill:white;fill-opacity:1;"/>
<path d="M16.9852 4.17584C20.6896 4.16083 23.7143 7.22903 23.7143 10.9999C23.7143 14.7682 20.6896 17.8364 16.9852 17.8239C13.2709 17.8114 10.3005 14.7983 10.2734 11.0174C10.2463 7.26654 13.2611 4.19084 16.9852 4.17584ZM16.9852 6.46636C14.5049 6.47386 12.5221 8.49432 12.5271 11.0074C12.5345 13.5255 14.5246 15.5384 17 15.5334C19.4803 15.5259 21.4606 13.508 21.4556 10.9924C21.4507 8.47431 19.4581 6.45885 16.9827 6.46636H16.9852Z" fill="white" style="fill:white;fill-opacity:1;"/>
</g>
<defs>
<clipPath id="clip0_47_1775">
<rect width="34" height="22" fill="white" style="fill:white;fill-opacity:1;"/>
</clipPath>
</defs>
</svg>
