<svg width="29" height="27" viewBox="0 0 29 27" fill="none" xmlns="http://www.w3.org/2000/svg">
<path fill-rule="evenodd" clip-rule="evenodd" d="M0 0H5V3H9V0H15V3H19V0H23L29 18H24H23H17C15.8954 18 15 18.8954 15 20C15 21.1046 15.8954 22 17 22H24V27H12C5.37258 27 0 21.6274 0 15V4V3V0ZM18 9.5C18 11.9853 15.9853 14 13.5 14C11.0147 14 9 11.9853 9 9.5C9 8.28089 9.48479 7.175 10.2721 6.36461C10.0981 6.70531 10 7.0912 10 7.5C10 8.88071 11.1193 10 12.5 10C13.8807 10 15 8.88071 15 7.5C15 6.26465 14.104 5.23857 12.9264 5.03622C13.1142 5.01232 13.3057 5 13.5 5C15.9853 5 18 7.01472 18 9.5Z" fill="#B3B3B3" style="fill:#B3B3B3;fill:color(display-p3 0.7020 0.7020 0.7020);fill-opacity:1;"/>
</svg>
