<svg width="76" height="34" viewBox="0 0 76 34" fill="none" xmlns="http://www.w3.org/2000/svg">
<g clip-path="url(#clip0_2618_6307)">
<path d="M14.7631 12.8475V10.8964C14.7631 10.8964 14.7417 10.8468 14.7149 10.8468C13.4891 10.8468 12.2526 10.8468 11.0161 10.8468C10.8769 10.8468 10.7485 10.8689 10.6093 10.8964C10.5932 10.8964 10.5718 10.9074 10.5611 10.924C10.4327 11.0728 10.3684 11.2492 10.3631 11.4531C10.3631 11.4806 10.3417 11.4972 10.3202 11.4972H9.99372C9.99372 11.4972 9.9616 11.4862 9.9616 11.4586V7.0659C9.9616 7.0659 9.9723 7.03283 9.99372 7.03283H10.3309C10.3309 7.03283 10.3631 7.04385 10.3684 7.0659C10.3791 7.42966 10.5611 7.61154 10.9091 7.61154C13.8799 7.61154 16.8561 7.61154 19.8269 7.61154C19.8537 7.61154 19.8751 7.63358 19.8751 7.66114V7.95876C19.8751 7.95876 19.859 8.00286 19.8376 8.00286C19.4308 8.04695 19.3773 8.32253 19.3773 8.70833C19.3773 10.3949 19.3773 12.0814 19.3933 13.7679C19.3933 14.1813 19.4683 14.2585 19.8751 14.2529C19.9019 14.2529 19.9179 14.2695 19.9179 14.297V14.6332C19.9179 14.6332 19.9072 14.6718 19.8858 14.6828C16.4493 16.5127 12.5096 17.1355 8.68762 16.8709C7.39222 16.7827 6.15036 16.4851 4.96202 15.9891C2.58 14.997 0.706493 12.9798 0.165853 10.3508C0.01062 9.55711 -0.0375558 8.69731 0.0266786 7.75484C0.144442 6.07933 0.727904 4.60775 1.78777 3.34561C3.04034 1.84096 4.70508 0.931551 6.58394 0.430001C7.5421 0.17647 8.47885 0.0386818 9.39419 0.0166356C10.3149 -0.00541053 11.3908 -0.0164336 12.3383 0.13789C13.2964 0.297724 14.2385 0.518186 15.1646 0.810297C15.8658 1.02525 16.4332 1.25122 16.8668 1.48271C17.1826 1.64805 17.4449 1.61498 17.659 1.37247C17.6804 1.35043 17.7018 1.34492 17.7286 1.35594L18.0337 1.46066C18.0337 1.46066 18.0658 1.49373 18.0551 1.51026L16.0799 5.66045C16.0799 5.66045 16.0532 5.68801 16.0371 5.67699L15.7106 5.48408C15.7106 5.48408 15.6785 5.45101 15.6838 5.42897C15.7159 5.23055 15.8123 5.08725 15.641 4.91088C15.5286 4.79514 15.368 4.69042 15.1539 4.5857C14.5704 4.31564 14.0191 4.1558 13.3446 3.99046C11.0375 3.42277 8.01851 3.22986 6.09683 4.98253C4.97808 6.00217 4.48026 7.34698 4.60338 9.01147C4.81214 11.8554 7.5421 13.3325 10.0258 13.4483C11.621 13.5254 13.1894 13.338 14.731 12.8916C14.7524 12.8861 14.7631 12.8695 14.7631 12.8475Z" fill="#B3B3B3" style="fill:#B3B3B3;fill:color(display-p3 0.7020 0.7020 0.7020);fill-opacity:1;"/>
<path d="M65.0477 7.88105C65.294 7.27478 65.5616 6.67953 65.856 6.08429C66.311 5.15284 66.8784 3.96234 67.5529 2.51281C67.7456 2.09944 67.9115 1.70812 68.04 1.34987C68.222 0.848323 67.7991 0.616838 67.3816 0.611327C67.3602 0.611327 67.3441 0.600304 67.3441 0.572746V0.247565C67.3441 0.247565 67.3548 0.208984 67.3816 0.208984H75.6571C75.6839 0.208984 75.6999 0.225519 75.6999 0.253077V0.561723C75.6999 0.561723 75.6892 0.600304 75.6678 0.600304C75.5286 0.62235 75.3895 0.649908 75.2556 0.682977C74.8221 0.776673 74.8435 1.06878 74.8435 1.48766C74.8435 6.31026 74.8435 11.1273 74.8435 15.9499C74.8435 16.3468 75.2985 16.4184 75.6678 16.457C75.6892 16.457 75.7053 16.4791 75.7053 16.5011V16.8097C75.7053 16.8428 75.6839 16.8593 75.6518 16.8593H69.5602C69.5602 16.8593 69.5281 16.8483 69.5281 16.8263V16.5066C69.5281 16.5066 69.5441 16.468 69.5655 16.4625C70.0098 16.4074 70.3845 16.3909 70.3845 15.8122C70.3845 11.9651 70.3845 8.11805 70.3845 4.2765C70.3845 4.24343 70.3417 4.23241 70.331 4.26548L64.8925 16.468C64.8925 16.468 64.855 16.4901 64.8443 16.468L59.4593 4.11667C59.4593 4.11667 59.4165 4.10013 59.4165 4.12769C59.4165 8.01884 59.4165 11.9155 59.4165 15.8177C59.4165 16.3964 59.8073 16.4129 60.2516 16.468C60.2676 16.468 60.2783 16.4791 60.2783 16.5011V16.8318C60.2783 16.8318 60.2676 16.8649 60.2462 16.8649H54.8612C54.8612 16.8649 54.8291 16.8538 54.8291 16.8318V16.5121C54.8291 16.5121 54.8452 16.468 54.8666 16.468C55.4447 16.3854 55.7016 16.3743 55.7016 15.6854C55.7016 10.8628 55.7016 6.03468 55.6909 1.21208C55.6909 0.677465 55.2466 0.671954 54.8666 0.616838C54.8398 0.616838 54.8291 0.600304 54.8291 0.572746V0.247565C54.8291 0.247565 54.8452 0.208984 54.8666 0.208984H62.8316C62.8316 0.208984 62.8691 0.225519 62.8691 0.247565V0.567235C62.8691 0.567235 62.8584 0.600304 62.837 0.600304C62.5586 0.611327 62.2054 0.721558 62.1518 1.0302C62.1358 1.11288 62.1518 1.2176 62.2107 1.34987C63.0618 3.55449 64.0521 5.7095 64.9942 7.87554C65.0049 7.89758 65.037 7.89758 65.0424 7.87554L65.0477 7.88105Z" fill="#B3B3B3" style="fill:#B3B3B3;fill:color(display-p3 0.7020 0.7020 0.7020);fill-opacity:1;"/>
<path d="M37.0362 8.24603C36.4688 8.02557 35.6605 8.09171 35.152 8.4224C34.5739 8.8027 34.4026 9.64596 34.8201 10.2302C35.2162 10.7869 35.9977 10.9246 36.6294 10.8199C37.3145 10.7097 37.898 10.401 38.3691 9.88847C38.3851 9.86643 38.3958 9.83887 38.3851 9.81131C38.1389 9.11134 37.7321 8.5161 37.0362 8.24052V8.24603ZM38.0211 5.0328C38.0211 4.40449 37.4323 3.89743 36.7097 3.89743C35.987 3.89743 35.3982 4.40449 35.3982 5.0328C35.3982 5.66112 35.987 6.16818 36.7097 6.16818C37.4323 6.16818 38.0211 5.66112 38.0211 5.0328ZM33.9797 6.63666C33.3909 6.07449 33.0215 5.56742 33.1125 4.66904C33.3374 2.39829 35.987 2.21641 37.6625 2.40931C39.0382 2.56915 40.2854 3.29116 40.2426 4.90053C40.2158 5.90363 39.4664 6.59808 38.6849 7.06105C38.6635 7.07207 38.6635 7.08861 38.6849 7.10514C39.0756 7.48544 39.4289 7.89329 39.7501 8.33973C39.7662 8.36729 39.809 8.36729 39.825 8.33973C40.7029 7.03901 41.8056 5.87056 43.2188 5.20366C43.2402 5.19264 43.2669 5.20917 43.2669 5.23673V8.55468C43.2669 8.64838 43.1438 8.68144 43.101 8.59877C42.9886 8.39484 42.8334 8.31217 42.6353 8.35075C42.1161 8.44996 41.554 9.38141 41.372 9.84989C41.3613 9.87194 41.372 9.88847 41.3881 9.90501C41.6611 10.1365 42.8334 10.9302 43.0154 10.2963C43.0207 10.2743 43.0368 10.2633 43.0582 10.2633H43.2295C43.2295 10.2633 43.2723 10.2853 43.2723 10.3129V12.9364C43.2723 12.9694 43.2562 12.986 43.2241 12.9915C41.9715 13.0797 40.7243 12.8371 39.7822 11.9057C39.7662 11.8892 39.7447 11.8892 39.7287 11.9057C38.7063 12.6773 37.6464 12.9364 36.3885 13.008C35.6605 13.0521 34.9539 12.9915 34.2741 12.8371C32.8288 12.5065 31.5977 11.3601 31.6245 9.7562C31.6512 8.25154 32.6683 7.18231 33.9851 6.69729C34.0118 6.68627 34.0172 6.66973 33.9958 6.6532" fill="#B3B3B3" style="fill:#B3B3B3;fill:color(display-p3 0.7020 0.7020 0.7020);fill-opacity:1;"/>
<path d="M18.6551 31.9553C21.4386 31.9608 23.5636 31.9663 25.025 31.9553C25.3943 31.9553 25.6138 31.7679 25.6834 31.4042C25.6834 31.3821 25.7048 31.3656 25.7316 31.3656H25.9885C25.9885 31.3656 26.0206 31.3766 26.0206 31.3987V34.4245C26.0206 34.4576 26.0046 34.4741 25.9724 34.4741H25.769C25.769 34.4741 25.7316 34.4576 25.7262 34.441C25.6727 34.2316 25.5656 34.1269 25.3515 34.1103C25.1856 34.0993 25.0196 34.0773 24.8537 34.0773C21.5349 34.0773 18.2161 34.0773 14.8974 34.0773C14.8759 34.0773 14.8652 34.0662 14.8652 34.0442V33.8127C14.8652 33.8127 14.8759 33.7796 14.8974 33.7741C15.1436 33.7466 15.5183 33.7135 15.5129 33.3663C15.5129 30.3625 15.5076 27.3532 15.5076 24.3494C15.5076 24.0077 15.1811 23.9691 14.8974 23.9415C14.8759 23.9415 14.8652 23.925 14.8652 23.903V23.666C14.8652 23.666 14.8759 23.6329 14.8974 23.6329C18.3553 23.6329 21.8186 23.6329 25.2766 23.6329C25.5549 23.6329 25.6941 23.4896 25.7048 23.203C25.7048 23.1809 25.7155 23.1699 25.7369 23.1699H25.9778C25.9778 23.1699 26.0153 23.1809 26.0153 23.2085V26.2839C26.0153 26.2839 25.9992 26.3225 25.9778 26.3225H25.7369C25.7101 26.3225 25.6994 26.3115 25.6994 26.2839C25.7369 25.7989 25.4211 25.7438 25.025 25.7438C22.8999 25.7438 20.7748 25.7438 18.6444 25.7438C18.6229 25.7438 18.6122 25.7548 18.6122 25.7769V27.6177C18.6122 27.6177 18.6229 27.6508 18.6444 27.6508C20.0254 27.6563 21.4064 27.6563 22.7821 27.6508C23.1408 27.6508 23.3228 27.4744 23.3228 27.1327C23.3228 27.1107 23.3335 27.0941 23.3549 27.0941H23.5743C23.5743 27.0941 23.6118 27.1107 23.6118 27.1327V30.142C23.6118 30.1751 23.5958 30.1916 23.5636 30.1916H23.3549C23.3549 30.1916 23.3174 30.1751 23.3174 30.153C23.3174 29.8113 23.1408 29.6405 22.7928 29.6405C20.823 29.6405 19.4419 29.6405 18.639 29.6405C18.6229 29.6405 18.6069 29.657 18.6069 29.6735V31.9002C18.6069 31.9278 18.6229 31.9443 18.6497 31.9443L18.6551 31.9553Z" fill="#B3B3B3" style="fill:#B3B3B3;fill:color(display-p3 0.7020 0.7020 0.7020);fill-opacity:1;"/>
<path d="M37.4168 26.4065C37.2455 26.2852 37.0153 26.175 36.7209 26.0758C35.9126 25.7947 35.1204 25.6514 34.3389 25.6349C33.4824 25.6183 32.733 25.6624 32.0371 26.0593C31.5233 26.3514 31.6143 27.0458 32.1763 27.2222C32.5457 27.3379 32.8936 27.4206 33.2255 27.4702C34.0177 27.5804 34.8046 27.6907 35.5968 27.7954C36.7477 27.9497 38.2732 28.3741 38.9049 29.4378C39.044 29.6748 39.135 29.9614 39.1832 30.3031C39.3545 31.6204 38.7603 32.7282 37.6737 33.3841C36.8815 33.8636 35.8966 34.0675 35.008 34.1171C33.0328 34.2274 31.1539 33.9077 29.2483 33.3731C29.0663 33.3235 28.8575 33.4998 28.697 33.6817C28.6809 33.6982 28.6595 33.7093 28.6381 33.6982L28.4186 33.6321C28.4186 33.6321 28.3918 33.6156 28.3972 33.5935L29.3232 30.485C29.3339 30.4409 29.3607 30.4299 29.3982 30.452L29.6284 30.5677C29.6284 30.5677 29.6605 30.6008 29.6551 30.6228C29.5962 30.8929 29.6926 31.0858 29.9388 31.2125C30.276 31.3889 30.6026 31.5212 30.9184 31.6094C31.898 31.8905 35.661 32.6125 36.1642 31.3173C36.5336 30.3693 34.933 30.1764 34.3978 30.1102C33.5895 30.0055 32.7758 29.9008 31.9676 29.7961C31.5929 29.7465 31.1272 29.6197 30.5544 29.4158C29.8799 29.1733 29.1145 28.6717 28.8522 27.9828C28.5096 27.0899 28.7612 25.9931 29.3179 25.2546C30.1101 24.2019 31.4751 23.6672 32.717 23.5515C33.9535 23.4358 35.1846 23.4964 36.4104 23.7224C37.01 23.8326 37.6095 23.9538 38.2036 24.0806C38.4552 24.1357 38.5676 24.0806 38.7496 23.9042C38.8567 23.7995 38.9852 23.805 39.1297 23.9153C39.1458 23.9263 39.1511 23.9428 39.1404 23.9649L37.7861 26.875C37.7861 26.875 37.754 26.908 37.7326 26.897L37.4864 26.7813C37.4864 26.7813 37.4542 26.7537 37.4542 26.7317V26.4726C37.4542 26.4726 37.4542 26.423 37.4275 26.412L37.4168 26.4065Z" fill="#B3B3B3" style="fill:#B3B3B3;fill:color(display-p3 0.7020 0.7020 0.7020);fill-opacity:1;"/>
<path d="M57.6771 31.6586V30.209C57.6771 30.209 57.6664 30.176 57.645 30.176C57.0509 30.1704 56.462 30.1649 55.8786 30.1704C55.7555 30.1704 55.6324 30.198 55.5199 30.2421C55.4985 30.2531 55.4825 30.2641 55.4718 30.2862C55.3968 30.4185 55.3594 30.5673 55.3487 30.7216C55.3487 30.7436 55.3379 30.7547 55.3165 30.7547H55.081C55.081 30.7547 55.0489 30.7436 55.0489 30.7216V27.8446C55.0489 27.8446 55.0596 27.8115 55.081 27.8115H55.3165C55.3165 27.8115 55.3487 27.8225 55.3487 27.8446C55.3594 27.9934 55.3968 28.1367 55.4718 28.269C55.4825 28.291 55.4985 28.3075 55.5199 28.3186C55.627 28.3682 55.7287 28.3957 55.8143 28.3957C57.3774 28.3957 58.9404 28.3957 60.4981 28.3957C60.5195 28.3957 60.5356 28.4068 60.5356 28.4343C60.5356 29.4209 60.5356 30.4019 60.5356 31.3885C60.5356 31.8735 60.5838 32.2593 61.1458 32.2318C61.1672 32.2318 61.1779 32.2428 61.1779 32.2648V32.4963C61.1779 32.4963 61.1619 32.5349 61.1458 32.5459C58.828 33.7529 56.3122 34.3427 53.7107 34.0947C52.351 33.9624 51.0075 33.549 50.06 32.4798C49.4284 31.7688 49.0483 30.9145 48.9145 29.9169C48.6201 27.6958 49.2089 25.7061 51.1092 24.5046C52.3832 23.6999 53.8338 23.4739 55.2951 23.507C56.5263 23.5346 57.7789 23.7881 58.9458 24.1684C59.1867 24.2455 59.3794 24.1904 59.5132 23.9975C59.5292 23.9755 59.5507 23.9645 59.5774 23.97L59.8129 24.003C59.8129 24.003 59.8451 24.0306 59.8397 24.0526L58.6621 27.1115C58.6621 27.1115 58.6353 27.1446 58.6085 27.1336L58.3784 27.0178C58.3784 27.0178 58.3409 26.9848 58.3463 26.9572C58.3623 26.632 58.1375 26.4557 57.8859 26.3399C56.7404 25.8108 55.5414 25.6565 54.2995 25.8714C52.5545 26.1746 51.6873 27.6682 51.9389 29.4264C52.351 32.2979 55.6056 32.3751 57.6397 31.7137C57.6611 31.7082 57.6718 31.6916 57.6718 31.6696L57.6771 31.6586Z" fill="#B3B3B3" style="fill:#B3B3B3;fill:color(display-p3 0.7020 0.7020 0.7020);fill-opacity:1;"/>
<path d="M8.40384 26.3406C7.9435 26.0981 7.44033 25.9603 6.89433 25.9272C6.11817 25.8831 5.342 25.8721 4.56584 25.8941C4.53907 25.8941 4.52837 25.9107 4.52837 25.9327V31.7915C4.52837 31.7915 4.53907 31.8191 4.55513 31.8191C5.30989 31.8411 6.05929 31.8301 6.80869 31.7805C7.27974 31.7529 7.71868 31.6702 8.12549 31.5104C9.10507 31.1191 9.40483 30.2924 9.49047 29.2452C9.5333 28.7326 9.49047 28.22 9.37271 27.7185C9.22283 27.0957 8.94448 26.6272 8.40384 26.3406ZM8.06126 23.6399C9.65106 23.6399 11.1927 24.5273 11.9207 25.9878C12.547 27.25 12.6326 28.909 12.3703 30.3254C12.0117 32.26 10.7056 33.6875 8.78925 34.0071C8.52696 34.0512 8.10408 34.0733 7.50991 34.0733C5.28847 34.0733 3.06703 34.0733 0.845594 34.0733C0.824182 34.0733 0.813477 34.0622 0.813477 34.0402V33.8087C0.813477 33.8087 0.824182 33.7757 0.845594 33.7701C1.10253 33.7426 1.42906 33.6985 1.42906 33.3458C1.4237 30.3695 1.41835 27.3988 1.41835 24.4226C1.41835 24.0147 1.18282 23.9596 0.845594 23.9376C0.824182 23.9376 0.813477 23.921 0.813477 23.899V23.662C0.813477 23.662 0.824182 23.6289 0.845594 23.6289C3.24903 23.6289 5.65247 23.6289 8.05591 23.6289" fill="#B3B3B3" style="fill:#B3B3B3;fill:color(display-p3 0.7020 0.7020 0.7020);fill-opacity:1;"/>
<path d="M42.5338 33.5594C42.5659 33.5043 42.5766 33.4492 42.5766 33.3886C42.5766 30.4013 42.5766 27.4031 42.5766 24.3993C42.5766 23.9859 42.234 23.9583 41.8861 23.9473C41.8593 23.9473 41.8486 23.9308 41.8486 23.9032V23.6717C41.8486 23.6717 41.8593 23.6387 41.8807 23.6387H46.3879C46.3879 23.6387 46.42 23.6497 46.42 23.6717V23.9087C46.42 23.9087 46.4039 23.9473 46.3772 23.9473C46.0827 23.9473 45.6866 23.9749 45.6866 24.3607C45.6866 27.37 45.6866 30.3738 45.6866 33.3831C45.6866 33.7248 46.1042 33.7689 46.3825 33.7634C46.4093 33.7634 46.4253 33.7799 46.4253 33.8075V34.05C46.4253 34.05 46.4146 34.083 46.3932 34.083H41.8861C41.8861 34.083 41.854 34.072 41.854 34.05V33.8185C41.854 33.8185 41.87 33.7799 41.8915 33.7799C42.0627 33.7744 42.4428 33.7413 42.5392 33.565L42.5338 33.5594Z" fill="#B3B3B3" style="fill:#B3B3B3;fill:color(display-p3 0.7020 0.7020 0.7020);fill-opacity:1;"/>
<path d="M72.5743 28.9349C72.5743 27.4027 72.5743 25.8705 72.5743 24.3273C72.5743 24.0076 72.1996 23.9525 71.9695 23.9359C71.948 23.9359 71.9373 23.9194 71.9373 23.8974V23.6659C71.9373 23.6659 71.948 23.6328 71.9695 23.6328H75.968C75.968 23.6328 76.0055 23.6438 76.0055 23.6714V23.9029C76.0055 23.9029 75.9948 23.9415 75.968 23.9415C75.6951 23.947 75.3632 23.9966 75.3632 24.3383C75.3632 27.3531 75.3632 30.3624 75.3632 33.3772C75.3632 33.7189 75.7218 33.752 75.968 33.7685C75.9895 33.7685 76.0055 33.7851 76.0055 33.8071V34.0331C76.0055 34.0331 75.9948 34.0717 75.968 34.0717H71.7714C71.7714 34.0717 71.7339 34.0551 71.7339 34.0331V33.8126C71.7339 33.7851 71.75 33.7685 71.7768 33.7685C72.1622 33.7685 72.6332 33.6693 72.2532 33.1623C72.0283 32.8591 71.7393 32.5119 71.3913 32.1316C69.8765 30.4892 68.2867 28.8467 66.9003 27.1602C66.8896 27.1492 66.8789 27.1437 66.8628 27.1437C66.8468 27.1437 66.8361 27.1602 66.8361 27.1767C66.8361 29.227 66.8361 31.2773 66.8361 33.3331C66.8361 33.6859 67.0769 33.752 67.3928 33.7685C67.4195 33.7685 67.4356 33.7851 67.4356 33.8126V34.0331C67.4356 34.0331 67.4195 34.0717 67.3928 34.0717H63.5173C63.5173 34.0717 63.4798 34.0606 63.4798 34.0331V33.8071C63.4798 33.8071 63.4905 33.7685 63.5173 33.7685C63.7528 33.741 64.0472 33.6969 64.0472 33.3993C64.0472 30.3514 64.0472 27.3035 64.0472 24.2611C64.0472 24.0186 63.6886 23.958 63.4638 23.9415C63.4423 23.9415 63.4316 23.9249 63.4316 23.9029V23.6659C63.4316 23.6659 63.4423 23.6383 63.4638 23.6383H68.913C68.913 23.6383 68.9451 23.6493 68.9451 23.6714V23.9084C68.9451 23.9084 68.9344 23.9415 68.913 23.9415C68.6721 23.98 68.2706 24.1399 68.5276 24.4595C68.7363 24.7186 68.9451 24.9721 69.1646 25.2146C70.278 26.4602 71.4074 27.7058 72.5529 28.9514C72.5636 28.9625 72.585 28.9514 72.585 28.9349H72.5743Z" fill="#B3B3B3" style="fill:#B3B3B3;fill:color(display-p3 0.7020 0.7020 0.7020);fill-opacity:1;"/>
</g>
<defs>
<clipPath id="clip0_2618_6307">
<rect width="76" height="34" fill="white" style="fill:white;fill-opacity:1;"/>
</clipPath>
</defs>
</svg>
