<svg width="98" height="62" viewBox="0 0 98 62" fill="none" xmlns="http://www.w3.org/2000/svg">
<g clip-path="url(#clip0_417_2581)">
<path fill-rule="evenodd" clip-rule="evenodd" d="M19.0369 25.4471V22.9269C19.0369 22.9269 19.0093 22.8628 18.9748 22.8628H14.2053C14.0258 22.8628 13.8602 22.8913 13.6807 22.9269C13.66 22.9269 13.6324 22.9412 13.6186 22.9625C13.4529 23.1547 13.3701 23.3825 13.3632 23.6459C13.3632 23.6815 13.3356 23.7029 13.308 23.7029H12.8869C12.8869 23.7029 12.8455 23.6887 12.8455 23.6531V17.9792C12.8455 17.9792 12.8593 17.9364 12.8869 17.9364H13.3218C13.3218 17.9364 13.3632 17.9507 13.3701 17.9792C13.3839 18.449 13.6186 18.6839 14.0672 18.6839H25.5666C25.6011 18.6839 25.6287 18.7124 25.6287 18.748V19.1324C25.6287 19.1324 25.608 19.1894 25.5804 19.1894C25.0558 19.2464 24.9868 19.6023 24.9868 20.1006C24.9868 22.2791 24.9868 24.4575 25.0075 26.636C25.0075 27.1699 25.1041 27.2695 25.6287 27.2624C25.6632 27.2624 25.6839 27.2838 25.6839 27.3194V27.7536C25.6839 27.7536 25.6701 27.8035 25.6425 27.8177C21.2112 30.1812 16.131 30.9857 11.2027 30.644C9.53236 30.5301 7.93101 30.1457 6.39868 29.5049C3.32712 28.2235 0.911286 25.6179 0.214146 22.2221C0.0139769 21.197 -0.0481445 20.0864 0.034684 18.869C0.186536 16.7048 0.938896 14.8041 2.30557 13.1738C3.92072 11.2303 6.06737 10.0556 8.4901 9.40779C9.72563 9.08032 10.9335 8.90234 12.1138 8.87386C13.3011 8.84539 14.6884 8.83115 15.9102 9.03048C17.1457 9.23694 18.3605 9.5217 19.5546 9.89901C20.4588 10.1767 21.1905 10.4685 21.7496 10.7675C22.1568 10.9811 22.495 10.9384 22.7711 10.6252C22.7987 10.5967 22.8263 10.5896 22.8609 10.6038L23.2543 10.7391C23.2543 10.7391 23.2957 10.7818 23.2819 10.8031L20.7349 16.1638C20.7349 16.1638 20.7004 16.1994 20.6797 16.1852L20.2587 15.936C20.2587 15.936 20.2172 15.8933 20.2241 15.8648C20.2333 15.8083 20.2464 15.7553 20.259 15.7046C20.3035 15.5249 20.3412 15.3732 20.1689 15.1956C20.024 15.0461 19.8169 14.9108 19.5408 14.7756C18.7885 14.4267 18.0775 14.2203 17.2078 14.0067C14.2329 13.2735 10.3399 13.0243 7.86198 15.2881C6.41939 16.6052 5.77747 18.3422 5.93622 20.4922C6.20541 24.1656 9.72563 26.0735 12.9283 26.223C14.9852 26.3227 17.0076 26.0807 18.9955 25.504C19.0231 25.4969 19.0369 25.4755 19.0369 25.4471ZM83.878 19.0324C84.1955 18.2493 84.5406 17.4805 84.9203 16.7116C85.507 15.5085 86.2386 13.9708 87.1083 12.0984C87.3568 11.5645 87.5708 11.0591 87.7365 10.5963C87.9711 9.94849 87.4258 9.64949 86.8875 9.64237C86.8598 9.64237 86.8391 9.62813 86.8391 9.59253V9.17251C86.8391 9.17251 86.853 9.12267 86.8875 9.12267H97.5585C97.5931 9.12267 97.6138 9.14403 97.6138 9.17963V9.5783C97.6138 9.5783 97.6 9.62813 97.5723 9.62813C97.3929 9.65661 97.2134 9.6922 97.0409 9.73492C96.5073 9.85042 96.5081 10.1994 96.5093 10.7013L96.5094 10.7743V29.4547C96.5094 29.9673 97.0961 30.0599 97.5723 30.1097C97.6 30.1097 97.6207 30.1382 97.6207 30.1667V30.5653C97.6207 30.608 97.5931 30.6294 97.5516 30.6294H89.6967C89.6967 30.6294 89.6553 30.6152 89.6553 30.5867V30.1738C89.6553 30.1738 89.676 30.1239 89.7036 30.1168L89.7843 30.107C90.3212 30.042 90.7597 29.9889 90.7597 29.2768V14.3766C90.7597 14.3338 90.7045 14.3196 90.6907 14.3623L83.6779 30.1239C83.6779 30.1239 83.6295 30.1524 83.6157 30.1239L76.6719 14.1701C76.6719 14.1701 76.6167 14.1487 76.6167 14.1843V29.2839C76.6167 29.9939 77.0714 30.0488 77.6079 30.1135L77.6935 30.1239C77.7142 30.1239 77.728 30.1382 77.728 30.1667V30.5938C77.728 30.5938 77.7142 30.6365 77.6866 30.6365H70.7428C70.7428 30.6365 70.7014 30.6223 70.7014 30.5938V30.1809C70.7014 30.1809 70.7221 30.1239 70.7497 30.1239L70.8274 30.1129C71.5182 30.015 71.8265 29.9714 71.8265 29.113V29.1027C71.8265 22.877 71.8265 16.6441 71.8127 10.4183C71.8127 9.78989 71.3382 9.72748 70.8834 9.66768C70.8385 9.66177 70.7938 9.65589 70.7497 9.64949C70.7152 9.64949 70.7014 9.62813 70.7014 9.59253V9.17251C70.7014 9.17251 70.7221 9.12267 70.7497 9.12267H81.0204C81.0204 9.12267 81.0687 9.14403 81.0687 9.17251V9.58541C81.0687 9.58541 81.0549 9.62813 81.0273 9.62813C80.6684 9.64237 80.2129 9.78475 80.1438 10.1834C80.1231 10.2902 80.1438 10.4255 80.2198 10.5963C81.0453 12.7383 81.9724 14.8441 82.8981 16.9469L82.8984 16.9475L82.8989 16.9485C83.2036 17.6407 83.5082 18.3326 83.809 19.0253C83.8228 19.0538 83.8642 19.0538 83.8711 19.0253L83.878 19.0324ZM45.3282 19.7299C45.9839 19.3027 47.0261 19.2173 47.7578 19.5021V19.4949C48.6551 19.8509 49.1797 20.6198 49.4972 21.5239C49.511 21.5595 49.4972 21.5951 49.4765 21.6235C48.8691 22.2856 48.1167 22.6843 47.2332 22.8267C46.4187 22.9619 45.411 22.784 44.9002 22.0649C44.3618 21.3103 44.5827 20.2211 45.3282 19.7299ZM47.3368 13.8851C48.2686 13.8851 49.0278 14.5401 49.0278 15.3516C49.0278 16.1632 48.2686 16.8182 47.3368 16.8182C46.4049 16.8182 45.6457 16.1632 45.6457 15.3516C45.6457 14.5401 46.4049 13.8851 47.3368 13.8851ZM42.6983 14.8818C42.581 16.0422 43.0573 16.6971 43.8165 17.4233L43.8372 17.4446C43.8648 17.466 43.8579 17.4874 43.8234 17.5016C42.1255 18.1281 40.814 19.5092 40.7795 21.4527C40.745 23.5243 42.3325 25.0051 44.1962 25.4322C45.0728 25.6316 45.9839 25.7099 46.9226 25.6529C48.5447 25.5604 49.9113 25.2258 51.2297 24.2291C51.2504 24.2078 51.278 24.2078 51.2987 24.2291C52.5135 25.4322 54.1218 25.7455 55.7369 25.6316C55.7784 25.6245 55.7991 25.6031 55.7991 25.5604V22.1717C55.7991 22.1361 55.7439 22.1076 55.7439 22.1076H55.523C55.4954 22.1076 55.4747 22.1219 55.4678 22.1504C55.2331 22.969 53.7215 21.9439 53.3694 21.6449C53.3487 21.6235 53.3349 21.6022 53.3487 21.5737C53.5834 20.9686 54.3082 19.7655 54.9777 19.6373C55.2331 19.5875 55.4332 19.6943 55.5782 19.9577C55.6334 20.0645 55.7922 20.0218 55.7922 19.9007V15.615C55.7922 15.5795 55.7577 15.5581 55.73 15.5723C53.9078 16.4337 52.4859 17.943 51.3539 19.6231C51.3332 19.6587 51.278 19.6587 51.2573 19.6231C50.8432 19.0464 50.3876 18.5196 49.8837 18.0284C49.8561 18.0071 49.8561 17.9857 49.8837 17.9715C50.8915 17.3735 51.8578 16.4765 51.8923 15.1808C51.9475 13.102 50.3393 12.1694 48.5654 11.963C46.4049 11.7138 42.9882 11.9487 42.6983 14.8818ZM24.055 50.1284L24.9046 50.1301C28.0795 50.1365 30.5361 50.1414 32.2689 50.1284C32.7451 50.1284 33.0281 49.8863 33.1179 49.4164C33.1179 49.388 33.1455 49.3666 33.18 49.3666H33.5113C33.5113 49.3666 33.5527 49.3809 33.5527 49.4093V53.3177C33.5527 53.3604 33.532 53.3818 33.4906 53.3818H33.2283C33.2283 53.3818 33.18 53.3604 33.1731 53.3391C33.1041 53.0685 32.966 52.9333 32.6899 52.9119C32.6186 52.9072 32.5473 52.9008 32.4759 52.8945C32.3333 52.8819 32.1906 52.8692 32.048 52.8692H19.2096C19.182 52.8692 19.1681 52.855 19.1681 52.8265V52.5275C19.1681 52.5275 19.182 52.4848 19.2096 52.4776L19.2327 52.4751C19.55 52.4398 20.0101 52.3886 20.0033 51.9508C20.0033 50.0131 20.0016 48.0735 19.9999 46.134V46.134V46.1339V46.1339V46.1339L19.9999 46.1274C19.9982 44.1857 19.9964 42.244 19.9964 40.304C19.9964 39.8626 19.5754 39.8128 19.2096 39.7772C19.182 39.7772 19.1681 39.7559 19.1681 39.7274V39.4213C19.1681 39.4213 19.182 39.3786 19.2096 39.3786H32.5933C32.9522 39.3786 33.1317 39.1935 33.1455 38.8233C33.1455 38.7948 33.1593 38.7806 33.1869 38.7806H33.4975C33.4975 38.7806 33.5458 38.7948 33.5458 38.8304V42.8028C33.5458 42.8028 33.5251 42.8527 33.4975 42.8527H33.1869C33.1524 42.8527 33.1386 42.8384 33.1386 42.8028C33.1869 42.1763 32.7796 42.1052 32.2689 42.1052H24.0412C24.0136 42.1052 23.9998 42.1194 23.9998 42.1479V44.5256C23.9998 44.5256 24.0136 44.5684 24.0412 44.5684C25.822 44.5755 27.6029 44.5755 29.3768 44.5684C29.8392 44.5684 30.0739 44.3405 30.0739 43.8992C30.0739 43.8707 30.0877 43.8493 30.1153 43.8493H30.3983C30.3983 43.8493 30.4466 43.8707 30.4466 43.8992V47.7862C30.4466 47.8289 30.4259 47.8503 30.3845 47.8503H30.1153C30.1153 47.8503 30.067 47.8289 30.067 47.8004C30.067 47.359 29.8392 47.1383 29.3906 47.1383H24.0343C24.0136 47.1383 23.9929 47.1597 23.9929 47.1811V50.0572C23.9929 50.0928 24.0136 50.1141 24.0481 50.1141L24.055 50.1284ZM47.3506 42.5325C47.7302 42.6607 48.027 42.803 48.2479 42.9597L48.2617 42.9668C48.2962 42.981 48.2962 43.0451 48.2962 43.0451V43.3797C48.2962 43.4082 48.3376 43.4438 48.3376 43.4438L48.6551 43.5933C48.6827 43.6075 48.7242 43.5648 48.7242 43.5648L50.4705 39.8059C50.4843 39.7774 50.4774 39.7561 50.4566 39.7418C50.2703 39.5995 50.1046 39.5923 49.9666 39.7276C49.7319 39.9554 49.587 40.0266 49.2625 39.9554C48.4964 39.7917 47.7233 39.6351 46.9502 39.4927C45.3696 39.2008 43.7821 39.1225 42.1876 39.272C40.5862 39.4215 38.8261 40.112 37.8046 41.4718C37.0867 42.4257 36.7623 43.8424 37.2041 44.9957C37.5423 45.8856 38.5293 46.5334 39.399 46.8467C40.1376 47.1101 40.7381 47.2738 41.2213 47.3379C41.7424 47.4055 42.2653 47.4732 42.7881 47.5408L42.7916 47.5412C43.3133 47.6087 43.835 47.6762 44.3549 47.7437L44.365 47.7449C45.0649 47.8315 47.1067 48.0841 46.6327 49.3028C45.9839 50.9757 41.1315 50.0431 39.8684 49.6801C39.4612 49.5662 39.0401 49.3953 38.6053 49.1675C38.2878 49.0038 38.1635 48.7546 38.2394 48.4058C38.2463 48.3773 38.2049 48.3346 38.2049 48.3346L37.9081 48.1851C37.8598 48.1566 37.8253 48.1708 37.8115 48.2278L36.6174 52.2429C36.6105 52.2714 36.645 52.2928 36.645 52.2928L36.928 52.3782C36.9556 52.3924 36.9832 52.3782 37.0039 52.3568C37.211 52.1219 37.4802 51.8941 37.7149 51.9582C40.1721 52.6487 42.5948 53.0616 45.1418 52.9193C46.2876 52.8552 47.5577 52.5918 48.5792 51.9724C49.9804 51.1252 50.7465 49.6943 50.5257 47.9929C50.4636 47.5515 50.3462 47.1813 50.1668 46.8752C49.3523 45.5012 47.3851 44.953 45.9011 44.7537C44.9883 44.6328 44.081 44.5063 43.1694 44.3791L42.8433 44.3336C42.4154 44.2696 41.9667 44.1628 41.4905 44.0133C40.7657 43.7855 40.6484 42.8885 41.311 42.5112C42.2083 41.9986 43.1746 41.9416 44.279 41.963C45.2868 41.9844 46.3083 42.1694 47.3506 42.5325ZM74.3734 49.744V47.8716C74.3734 47.8716 74.3596 47.8289 74.332 47.8289L74.3216 47.8288C73.559 47.8218 72.8032 47.8147 72.0542 47.8218C71.8954 47.8218 71.7367 47.8574 71.5917 47.9144C71.5641 47.9286 71.5434 47.9428 71.5296 47.9713C71.433 48.1422 71.3847 48.3344 71.3709 48.5337C71.3709 48.5622 71.3571 48.5764 71.3294 48.5764H71.0257C71.0257 48.5764 70.9843 48.5622 70.9843 48.5337V44.8176C70.9843 44.8176 70.9981 44.7749 71.0257 44.7749H71.3294C71.3294 44.7749 71.3709 44.7891 71.3709 44.8176C71.3847 45.0098 71.433 45.1949 71.5296 45.3657C71.5434 45.3942 71.5641 45.4156 71.5917 45.4298C71.7298 45.4939 71.8609 45.5295 71.9714 45.5295H78.011C78.0386 45.5295 78.0593 45.5437 78.0593 45.5793V49.3951C78.0593 50.0216 78.1214 50.5199 78.8461 50.4843C78.8738 50.4843 78.8876 50.4986 78.8876 50.5271V50.8261C78.8876 50.8261 78.8669 50.8759 78.8461 50.8901C75.8574 52.4492 72.6133 53.2109 69.2587 52.8906C67.5055 52.7197 65.773 52.1858 64.5513 50.8047C63.7368 49.8863 63.2468 48.7829 63.0742 47.4943C62.6946 44.6254 63.4538 42.0554 65.9042 40.5034C67.5469 39.464 69.4175 39.1721 71.3018 39.2149C72.8894 39.2505 74.5045 39.5779 76.0093 40.0691C76.3199 40.1688 76.5684 40.0976 76.7409 39.8485C76.7616 39.82 76.7892 39.8057 76.8237 39.8129L77.1274 39.8556C77.1274 39.8556 77.1689 39.8912 77.162 39.9196L75.6434 43.8707C75.6434 43.8707 75.6089 43.9134 75.5744 43.8992L75.2776 43.7497C75.2776 43.7497 75.2293 43.707 75.2362 43.6714C75.2569 43.2514 74.967 43.0236 74.6426 42.8741C73.1655 42.1906 71.6194 41.9913 70.018 42.2689C67.7678 42.6605 66.6496 44.5898 66.974 46.8607C67.5055 50.5698 71.7022 50.6694 74.3251 49.8152C74.3527 49.808 74.3665 49.7867 74.3665 49.7582L74.3734 49.744ZM8.89049 42.3403C9.59453 42.383 10.2434 42.561 10.837 42.8742C11.5341 43.2444 11.893 43.8495 12.0863 44.654C12.2381 45.3018 12.2934 45.9639 12.2381 46.6259C12.1277 47.9786 11.7412 49.0464 10.478 49.5519C9.95345 49.7583 9.38746 49.8651 8.78005 49.9007C7.81372 49.9648 6.84738 49.979 5.87415 49.9505C5.85344 49.9505 5.83964 49.915 5.83964 49.915V42.3474C5.83964 42.3189 5.85344 42.2975 5.88795 42.2975C6.8888 42.2691 7.88964 42.2833 8.89049 42.3403ZM15.3718 42.4186C14.4331 40.532 12.4452 39.3858 10.3952 39.3858L10.3883 39.3716H1.0908C1.06319 39.3716 1.04938 39.4143 1.04938 39.4143V39.7204C1.04938 39.7489 1.06319 39.7703 1.0908 39.7703C1.52565 39.7987 1.82935 39.8699 1.82935 40.3968C1.82935 44.2339 1.83623 48.0639 1.84312 51.9011L1.84316 51.9225C1.84316 52.3782 1.42211 52.4351 1.0908 52.4707C1.06319 52.4778 1.04938 52.5205 1.04938 52.5205V52.8195C1.04938 52.848 1.06319 52.8622 1.0908 52.8622H9.68426C10.4504 52.8622 10.9957 52.8338 11.3339 52.7768C13.805 52.3639 15.4892 50.5201 15.9516 48.0213C16.2898 46.1917 16.1794 44.0488 15.3718 42.4186ZM54.8466 52.2C54.888 52.1288 54.9018 52.0576 54.9018 51.9793V40.3681C54.9018 39.8342 54.4601 39.7986 54.0114 39.7843C53.9769 39.7843 53.9631 39.763 53.9631 39.7274V39.4284C53.9631 39.4284 53.9769 39.3857 54.0045 39.3857H59.8163C59.8163 39.3857 59.8577 39.3999 59.8577 39.4284V39.7345C59.8577 39.7345 59.837 39.7843 59.8025 39.7843C59.4229 39.7843 58.9121 39.8199 58.9121 40.3183V51.9722C58.9121 52.4136 59.4505 52.4705 59.8094 52.4634C59.8439 52.4634 59.8646 52.4848 59.8646 52.5204V52.8336C59.8646 52.8336 59.8508 52.8763 59.8232 52.8763H54.0114C54.0114 52.8763 53.97 52.8621 53.97 52.8336V52.5346C53.97 52.5346 53.9907 52.4848 54.0183 52.4848C54.2392 52.4776 54.7293 52.4349 54.8535 52.2071L54.8466 52.2ZM93.5827 40.2755V46.227H93.5965C93.5965 46.2484 93.5689 46.2626 93.5551 46.2484C92.078 44.6394 90.6216 43.0305 89.1859 41.4216C88.9029 41.1084 88.6337 40.7809 88.3645 40.4463C88.0332 40.0334 88.5509 39.827 88.8615 39.7771C88.8891 39.7771 88.9029 39.7344 88.9029 39.7344V39.4283C88.9029 39.3998 88.8615 39.3856 88.8615 39.3856H81.8348C81.8072 39.3856 81.7934 39.4212 81.7934 39.4212V39.7273C81.7934 39.7558 81.8072 39.7771 81.8348 39.7771C82.1247 39.7985 82.5872 39.8768 82.5872 40.19V51.9934C82.5872 52.3779 82.2076 52.4348 81.9039 52.4704C81.8694 52.4704 81.8556 52.5203 81.8556 52.5203V52.8121C81.8556 52.8477 81.9039 52.862 81.9039 52.862H86.9012C86.9357 52.862 86.9564 52.8121 86.9564 52.8121V52.5274C86.9564 52.4918 86.9357 52.4704 86.9012 52.4704C86.494 52.4491 86.1833 52.3636 86.1833 51.908V43.956C86.1833 43.9347 86.1972 43.9133 86.2179 43.9133C86.2386 43.9133 86.2524 43.9204 86.2662 43.9347C87.6346 45.6021 89.1567 47.2363 90.6715 48.8626C91.1356 49.3609 91.5991 49.8585 92.0573 50.3561C92.5059 50.8473 92.8787 51.2958 93.1686 51.6873C93.6586 52.3423 93.0512 52.4704 92.5542 52.4704C92.5197 52.4704 92.499 52.4918 92.499 52.5274V52.8121C92.499 52.8406 92.5473 52.862 92.5473 52.862H97.9588C97.9933 52.862 98.0071 52.8121 98.0071 52.8121V52.5203C98.0071 52.4918 97.9864 52.4704 97.9588 52.4704C97.6413 52.4491 97.1788 52.4064 97.1788 51.965V40.2897C97.1788 39.8483 97.6068 39.7842 97.9588 39.7771C97.9933 39.7771 98.0071 39.7273 98.0071 39.7273V39.4283C98.0071 39.3927 97.9588 39.3785 97.9588 39.3785H92.8027C92.7751 39.3785 92.7613 39.4212 92.7613 39.4212V39.7202C92.7613 39.7486 92.7751 39.77 92.8027 39.77C93.0995 39.7914 93.5827 39.8625 93.5827 40.2755Z" fill="white" style="fill:white;fill-opacity:1;"/>
</g>
<defs>
<clipPath id="clip0_417_2581">
<rect width="98" height="62" fill="white" style="fill:white;fill-opacity:1;"/>
</clipPath>
</defs>
</svg>
