<svg width="98" height="62" viewBox="0 0 98 62" fill="none" xmlns="http://www.w3.org/2000/svg">
<g clip-path="url(#clip0_323_2232)">
<path d="M19.0369 16.5955V14.0754C19.0369 14.0754 19.0093 14.0113 18.9748 14.0113C17.3942 14.0113 15.7997 14.0113 14.2053 14.0113C14.0258 14.0113 13.8602 14.0398 13.6807 14.0754C13.66 14.0754 13.6324 14.0896 13.6186 14.1109C13.4529 14.3032 13.3701 14.531 13.3632 14.7944C13.3632 14.83 13.3356 14.8513 13.308 14.8513H12.8869C12.8869 14.8513 12.8455 14.8371 12.8455 14.8015V9.12759C12.8455 9.12759 12.8593 9.08488 12.8869 9.08488H13.3218C13.3218 9.08488 13.3632 9.09912 13.3701 9.12759C13.3839 9.59745 13.6186 9.83238 14.0672 9.83238C17.898 9.83238 21.7358 9.83238 25.5666 9.83238C25.6011 9.83238 25.6287 9.86086 25.6287 9.89645V10.2809C25.6287 10.2809 25.608 10.3378 25.5804 10.3378C25.0558 10.3948 24.9868 10.7507 24.9868 11.2491C24.9868 13.4275 24.9868 15.606 25.0075 17.7844C25.0075 18.3183 25.1041 18.418 25.6287 18.4109C25.6632 18.4109 25.6839 18.4322 25.6839 18.4678V18.9021C25.6839 18.9021 25.6701 18.9519 25.6425 18.9662C21.2112 21.3297 16.131 22.1341 11.2027 21.7924C9.53236 21.6785 7.93101 21.2941 6.39868 20.6534C3.32712 19.3719 0.911286 16.7664 0.214146 13.3706C0.0139769 12.3454 -0.0481445 11.2348 0.0346841 10.0175C0.186536 7.85328 0.938896 5.95249 2.30557 4.32222C3.92072 2.37871 6.06737 1.20407 8.4901 0.556232C9.72563 0.228755 10.9335 0.0507778 12.1139 0.0223015C13.3011 -0.0061748 14.6884 -0.0204129 15.9102 0.178921C17.1457 0.385374 18.3605 0.670137 19.5546 1.04745C20.4588 1.32509 21.1905 1.61697 21.7496 1.91597C22.1568 2.12955 22.495 2.08683 22.7711 1.77359C22.7987 1.74512 22.8263 1.738 22.8609 1.75224L23.2543 1.8875C23.2543 1.8875 23.2957 1.93021 23.2819 1.95157L20.7349 7.31223C20.7349 7.31223 20.7004 7.34783 20.6797 7.33359L20.2587 7.08442C20.2587 7.08442 20.2172 7.04171 20.2241 7.01323C20.2656 6.75694 20.3898 6.57185 20.1689 6.34404C20.024 6.19454 19.8169 6.05927 19.5408 5.92401C18.7885 5.57518 18.0775 5.36872 17.2078 5.15515C14.2329 4.42189 10.3399 4.17272 7.86198 6.43659C6.41939 7.75361 5.77747 9.49067 5.93622 11.6406C6.20541 15.3141 9.72563 17.222 12.9283 17.3715C14.9852 17.4711 17.0076 17.2291 18.9955 16.6525C19.0231 16.6453 19.0369 16.624 19.0369 16.5955Z" fill="white" style="fill:white;fill-opacity:1;"/>
<path d="M83.8778 10.1812C84.1953 9.39814 84.5404 8.62928 84.9201 7.86042C85.5068 6.65729 86.2384 5.11957 87.1081 3.24726C87.3566 2.71333 87.5706 2.20787 87.7362 1.74513C87.9709 1.0973 87.4256 0.798296 86.8872 0.791177C86.8596 0.791177 86.8389 0.776938 86.8389 0.741343V0.321318C86.8389 0.321318 86.8527 0.271484 86.8872 0.271484H97.5583C97.5928 0.271484 97.6135 0.292842 97.6135 0.328437V0.727105C97.6135 0.727105 97.5997 0.776939 97.5721 0.776939C97.3927 0.805415 97.2132 0.84101 97.0406 0.883725C96.4816 1.00475 96.5092 1.38206 96.5092 1.92311C96.5092 8.1523 96.5092 14.3744 96.5092 20.6036C96.5092 21.1161 97.0959 21.2087 97.5721 21.2585C97.5997 21.2585 97.6204 21.287 97.6204 21.3155V21.7141C97.6204 21.7568 97.5928 21.7782 97.5514 21.7782H89.6965C89.6965 21.7782 89.6551 21.764 89.6551 21.7355V21.3226C89.6551 21.3226 89.6758 21.2728 89.7034 21.2656C90.2763 21.1944 90.7595 21.1731 90.7595 20.4256C90.7595 15.4565 90.7595 10.4874 90.7595 5.52536C90.7595 5.48265 90.7043 5.46841 90.6905 5.51112L83.6776 21.2727C83.6776 21.2727 83.6293 21.3012 83.6155 21.2727L76.6717 5.31891C76.6717 5.31891 76.6165 5.29755 76.6165 5.33314C76.6165 10.3592 76.6165 15.3924 76.6165 20.4327C76.6165 21.1802 77.1204 21.2016 77.6933 21.2727C77.714 21.2727 77.7278 21.287 77.7278 21.3155V21.7426C77.7278 21.7426 77.714 21.7853 77.6864 21.7853H70.7426C70.7426 21.7853 70.7012 21.7711 70.7012 21.7426V21.3297C70.7012 21.3297 70.7219 21.2727 70.7495 21.2727C71.4949 21.166 71.8263 21.1517 71.8263 20.2618C71.8263 14.0327 71.8263 7.79634 71.8125 1.56716C71.8125 0.876606 71.2396 0.869487 70.7495 0.798296C70.715 0.798296 70.7012 0.776938 70.7012 0.741343V0.321318C70.7012 0.321318 70.7219 0.271484 70.7495 0.271484H81.0202C81.0202 0.271484 81.0685 0.292842 81.0685 0.321318V0.734224C81.0685 0.734224 81.0547 0.776939 81.0271 0.776939C80.6682 0.791177 80.2127 0.933558 80.1436 1.33223C80.1229 1.43901 80.1436 1.57427 80.2196 1.74513C81.317 4.59276 82.594 7.37632 83.8088 10.1741C83.8226 10.2026 83.864 10.2026 83.8709 10.1741L83.8778 10.1812Z" fill="white" style="fill:white;fill-opacity:1;"/>
<path d="M47.7572 10.6508C47.0255 10.366 45.9833 10.4515 45.3275 10.8786C44.5821 11.3698 44.3612 12.459 44.8996 13.2137C45.4104 13.9327 46.4181 14.1107 47.2326 13.9754C48.1161 13.833 48.8685 13.4344 49.4759 12.7723C49.4966 12.7438 49.5104 12.7082 49.4966 12.6726C49.1791 11.7685 48.6545 10.9996 47.7572 10.6437V10.6508ZM49.0272 6.50038C49.0272 5.68881 48.268 5.03385 47.3361 5.03385C46.4043 5.03385 45.645 5.68881 45.645 6.50038C45.645 7.31195 46.4043 7.96691 47.3361 7.96691C48.268 7.96691 49.0272 7.31195 49.0272 6.50038ZM43.8159 8.57203C43.0567 7.84589 42.5804 7.19093 42.6977 6.03052C42.9876 3.09746 46.4043 2.86253 48.5648 3.1117C50.3387 3.31815 51.9469 4.25075 51.8917 6.32952C51.8572 7.62519 50.8909 8.5222 49.8831 9.1202C49.8555 9.13444 49.8555 9.1558 49.8831 9.17715C50.387 9.66837 50.8425 10.1952 51.2567 10.7718C51.2774 10.8074 51.3326 10.8074 51.3533 10.7718C52.4853 9.09172 53.9072 7.58248 55.7294 6.72107C55.757 6.70683 55.7916 6.72819 55.7916 6.76379V11.0495C55.7916 11.1705 55.6328 11.2132 55.5776 11.1064C55.4326 10.843 55.2325 10.7362 54.9771 10.7861C54.3075 10.9142 53.5828 12.1173 53.3481 12.7225C53.3343 12.7509 53.3481 12.7723 53.3688 12.7936C53.7208 13.0926 55.2325 14.1178 55.4671 13.2991C55.474 13.2706 55.4948 13.2564 55.5224 13.2564H55.7432C55.7432 13.2564 55.7985 13.2849 55.7985 13.3205V16.7091C55.7985 16.7518 55.7777 16.7732 55.7363 16.7803C54.1212 16.8942 52.5129 16.581 51.2981 15.3779C51.2774 15.3565 51.2498 15.3565 51.2291 15.3779C49.9107 16.3745 48.5441 16.7091 46.922 16.8017C45.9833 16.8586 45.0722 16.7803 44.1955 16.581C42.3319 16.1538 40.7444 14.6731 40.7789 12.6014C40.8134 10.6579 42.1248 9.27682 43.8228 8.65034C43.8573 8.6361 43.8642 8.61475 43.8366 8.59339" fill="white" style="fill:white;fill-opacity:1;"/>
<path d="M24.0549 41.2755C27.6441 41.2827 30.3843 41.2898 32.2687 41.2755C32.745 41.2755 33.028 41.0335 33.1177 40.5636C33.1177 40.5352 33.1453 40.5138 33.1798 40.5138H33.5111C33.5111 40.5138 33.5525 40.528 33.5525 40.5565V44.4649C33.5525 44.5076 33.5318 44.5289 33.4904 44.5289H33.2281C33.2281 44.5289 33.1798 44.5076 33.1729 44.4862C33.1039 44.2157 32.9658 44.0804 32.6897 44.0591C32.4758 44.0449 32.2618 44.0164 32.0478 44.0164C27.7683 44.0164 23.4889 44.0164 19.2094 44.0164C19.1818 44.0164 19.168 44.0021 19.168 43.9737V43.6747C19.168 43.6747 19.1818 43.6319 19.2094 43.6248C19.5269 43.5892 20.0101 43.5465 20.0032 43.098C20.0032 39.2181 19.9963 35.3311 19.9963 31.4512C19.9963 31.0098 19.5752 30.96 19.2094 30.9244C19.1818 30.9244 19.168 30.903 19.168 30.8746V30.5684C19.168 30.5684 19.1818 30.5257 19.2094 30.5257C23.6683 30.5257 28.1342 30.5257 32.5931 30.5257C32.952 30.5257 33.1315 30.3406 33.1453 29.9704C33.1453 29.942 33.1591 29.9277 33.1867 29.9277H33.4973C33.4973 29.9277 33.5456 29.942 33.5456 29.9776V33.95C33.5456 33.95 33.5249 33.9998 33.4973 33.9998H33.1867C33.1522 33.9998 33.1384 33.9856 33.1384 33.95C33.1867 33.3235 32.7795 33.2523 32.2687 33.2523C29.5284 33.2523 26.7882 33.2523 24.0411 33.2523C24.0134 33.2523 23.9996 33.2666 23.9996 33.2951V35.6728C23.9996 35.6728 24.0134 35.7155 24.0411 35.7155C25.8219 35.7227 27.6027 35.7227 29.3766 35.7155C29.8391 35.7155 30.0737 35.4877 30.0737 35.0463C30.0737 35.0179 30.0875 34.9965 30.1151 34.9965H30.3981C30.3981 34.9965 30.4465 35.0179 30.4465 35.0463V38.9334C30.4465 38.9761 30.4258 38.9974 30.3843 38.9974H30.1151C30.1151 38.9974 30.0668 38.9761 30.0668 38.9476C30.0668 38.5062 29.8391 38.2855 29.3904 38.2855C26.8503 38.2855 25.0695 38.2855 24.0341 38.2855C24.0134 38.2855 23.9927 38.3069 23.9927 38.3282V41.2043C23.9927 41.2399 24.0134 41.2613 24.048 41.2613L24.0549 41.2755Z" fill="white" style="fill:white;fill-opacity:1;"/>
<path d="M48.2476 34.1075C48.0268 33.9509 47.73 33.8085 47.3503 33.6803C46.3081 33.3173 45.2865 33.1322 44.2788 33.1108C43.1744 33.0894 42.2081 33.1464 41.3107 33.659C40.6481 34.0363 40.7655 34.9333 41.4902 35.1611C41.9665 35.3106 42.4151 35.4174 42.8431 35.4815C43.8646 35.6238 44.8793 35.7662 45.9008 35.9015C47.3848 36.1008 49.352 36.649 50.1665 38.023C50.346 38.3291 50.4633 38.6993 50.5254 39.1407C50.7463 40.8421 49.9801 42.2731 48.5789 43.1202C47.5574 43.7396 46.2874 44.003 45.1416 44.0671C42.5946 44.2094 40.1718 43.7965 37.7146 43.106C37.4799 43.0419 37.2107 43.2697 37.0037 43.5047C36.983 43.526 36.9553 43.5402 36.9277 43.526L36.6447 43.4406C36.6447 43.4406 36.6102 43.4192 36.6171 43.3907L37.8112 39.3756C37.825 39.3186 37.8596 39.3044 37.9079 39.3329L38.2047 39.4824C38.2047 39.4824 38.2461 39.5251 38.2392 39.5536C38.1633 39.9024 38.2875 40.1516 38.605 40.3153C39.0399 40.5431 39.4609 40.714 39.8681 40.8279C41.1313 41.191 45.9837 42.1236 46.6325 40.4506C47.1087 39.2261 45.0449 38.9769 44.3547 38.8915C43.3124 38.7562 42.2633 38.621 41.221 38.4857C40.7378 38.4216 40.1373 38.2579 39.3988 37.9945C38.5291 37.6812 37.542 37.0334 37.2038 36.1435C36.7621 34.9902 37.0865 33.5735 37.8043 32.6196C38.8259 31.2598 40.586 30.5693 42.1873 30.4198C43.7818 30.2703 45.3693 30.3486 46.95 30.6405C47.7231 30.7829 48.4961 30.9395 49.2623 31.1032C49.5867 31.1744 49.7316 31.1032 49.9663 30.8754C50.1044 30.7402 50.27 30.7473 50.4564 30.8897C50.4771 30.9039 50.484 30.9253 50.4702 30.9537L48.7239 34.7126C48.7239 34.7126 48.6825 34.7553 48.6549 34.7411L48.3374 34.5916C48.3374 34.5916 48.296 34.556 48.296 34.5275V34.1929C48.296 34.1929 48.2959 34.1288 48.2614 34.1146L48.2476 34.1075Z" fill="white" style="fill:white;fill-opacity:1;"/>
<path d="M74.3731 40.8925V39.0202C74.3731 39.0202 74.3593 38.9774 74.3317 38.9774C73.5656 38.9703 72.8063 38.9632 72.0539 38.9703C71.8952 38.9703 71.7364 39.0059 71.5915 39.0629C71.5639 39.0771 71.5432 39.0913 71.5294 39.1198C71.4327 39.2907 71.3844 39.4829 71.3706 39.6822C71.3706 39.7107 71.3568 39.7249 71.3292 39.7249H71.0255C71.0255 39.7249 70.9841 39.7107 70.9841 39.6822V35.9661C70.9841 35.9661 70.9979 35.9234 71.0255 35.9234H71.3292C71.3292 35.9234 71.3706 35.9376 71.3706 35.9661C71.3844 36.1583 71.4327 36.3434 71.5294 36.5142C71.5432 36.5427 71.5639 36.5641 71.5915 36.5783C71.7295 36.6424 71.8607 36.678 71.9711 36.678C73.9866 36.678 76.0021 36.678 78.0107 36.678C78.0383 36.678 78.059 36.6922 78.059 36.7278C78.059 38.0021 78.059 39.2693 78.059 40.5436C78.059 41.1701 78.1211 41.6684 78.8459 41.6329C78.8735 41.6329 78.8873 41.6471 78.8873 41.6756V41.9746C78.8873 41.9746 78.8666 42.0244 78.8459 42.0386C75.8572 43.5977 72.613 44.3595 69.2585 44.0391C67.5053 43.8682 65.7728 43.3343 64.551 41.9532C63.7366 41.0349 63.2465 39.9314 63.0739 38.6428C62.6943 35.7739 63.4536 33.2039 65.9039 31.6519C67.5467 30.6125 69.4172 30.3206 71.3016 30.3634C72.8891 30.399 74.5043 30.7264 76.009 31.2176C76.3196 31.3173 76.5681 31.2461 76.7407 30.997C76.7614 30.9685 76.789 30.9542 76.8235 30.9614L77.1272 31.0041C77.1272 31.0041 77.1686 31.0397 77.1617 31.0681L75.6432 35.0192C75.6432 35.0192 75.6087 35.0619 75.5742 35.0477L75.2773 34.8982C75.2773 34.8982 75.229 34.8555 75.2359 34.8199C75.2566 34.3999 74.9667 34.1721 74.6423 34.0226C73.1652 33.3391 71.6191 33.1398 70.0177 33.4174C67.7676 33.809 66.6494 35.7383 66.9738 38.0092C67.5053 41.7183 71.7019 41.818 74.3248 40.9637C74.3524 40.9565 74.3662 40.9352 74.3662 40.9067L74.3731 40.8925Z" fill="white" style="fill:white;fill-opacity:1;"/>
<path d="M10.8364 34.0221C10.2428 33.7089 9.59398 33.5309 8.88993 33.4882C7.88909 33.4312 6.88824 33.417 5.8874 33.4455C5.85289 33.4455 5.83908 33.4668 5.83908 33.4953V41.0629C5.83908 41.0629 5.85289 41.0985 5.87359 41.0985C6.84683 41.127 7.81316 41.1127 8.7795 41.0486C9.38691 41.013 9.9529 40.9063 10.4775 40.6998C11.7406 40.1944 12.1272 39.1265 12.2376 37.7739C12.2928 37.1118 12.2376 36.4497 12.0857 35.8019C11.8925 34.9974 11.5335 34.3923 10.8364 34.0221ZM10.3947 30.5338C12.4447 30.5338 14.4325 31.6799 15.3713 33.5665C16.1788 35.1968 16.2893 37.3396 15.9511 39.1692C15.4886 41.668 13.8044 43.5118 11.3334 43.9247C10.9952 43.9817 10.4499 44.0102 9.68371 44.0102C6.81922 44.0102 3.95473 44.0102 1.09024 44.0102C1.06263 44.0102 1.04883 43.9959 1.04883 43.9675V43.6685C1.04883 43.6685 1.06263 43.6257 1.09024 43.6186C1.42156 43.583 1.8426 43.5261 1.8426 43.0705C1.8357 39.2262 1.8288 35.389 1.8288 31.5447C1.8288 31.0179 1.52509 30.9467 1.09024 30.9182C1.06263 30.9182 1.04883 30.8968 1.04883 30.8684V30.5622C1.04883 30.5622 1.06263 30.5195 1.09024 30.5195C4.18941 30.5195 7.28858 30.5195 10.3878 30.5195" fill="white" style="fill:white;fill-opacity:1;"/>
<path d="M54.8464 43.3475C54.8878 43.2763 54.9016 43.2052 54.9016 43.1268C54.9016 39.2683 54.9016 35.3955 54.9016 31.5156C54.9016 30.9817 54.4599 30.9461 54.0112 30.9319C53.9767 30.9319 53.9629 30.9105 53.9629 30.8749V30.5759C53.9629 30.5759 53.9767 30.5332 54.0043 30.5332H59.8161C59.8161 30.5332 59.8575 30.5474 59.8575 30.5759V30.882C59.8575 30.882 59.8368 30.9319 59.8023 30.9319C59.4227 30.9319 58.9119 30.9675 58.9119 31.4658C58.9119 35.3528 58.9119 39.2327 58.9119 43.1197C58.9119 43.5611 59.4503 43.6181 59.8092 43.6109C59.8437 43.6109 59.8644 43.6323 59.8644 43.6679V43.9811C59.8644 43.9811 59.8506 44.0238 59.823 44.0238H54.0112C54.0112 44.0238 53.9698 44.0096 53.9698 43.9811V43.6821C53.9698 43.6821 53.9905 43.6323 54.0181 43.6323C54.239 43.6252 54.7291 43.5825 54.8533 43.3547L54.8464 43.3475Z" fill="white" style="fill:white;fill-opacity:1;"/>
<path d="M93.5822 37.3759C93.5822 35.3968 93.5822 33.4177 93.5822 31.4243C93.5822 31.0114 93.0991 30.9402 92.8023 30.9189C92.7747 30.9189 92.7609 30.8975 92.7609 30.8691V30.5701C92.7609 30.5701 92.7747 30.5273 92.8023 30.5273H97.9583C97.9583 30.5273 98.0067 30.5416 98.0067 30.5772V30.8762C98.0067 30.8762 97.9929 30.926 97.9583 30.926C97.6063 30.9331 97.1784 30.9972 97.1784 31.4386C97.1784 35.3327 97.1784 39.2197 97.1784 43.1139C97.1784 43.5552 97.6408 43.598 97.9583 43.6193C97.986 43.6193 98.0067 43.6407 98.0067 43.6692V43.961C98.0067 43.961 97.9929 44.0109 97.9583 44.0109H92.5469C92.5469 44.0109 92.4986 43.9895 92.4986 43.961V43.6763C92.4986 43.6407 92.5193 43.6193 92.5538 43.6193C93.0508 43.6193 93.6582 43.4912 93.1681 42.8362C92.8782 42.4447 92.5055 41.9962 92.0568 41.505C90.1034 39.3835 88.0534 37.262 86.2657 35.0835C86.2519 35.0693 86.2381 35.0622 86.2174 35.0622C86.1967 35.0622 86.1829 35.0836 86.1829 35.1049C86.1829 37.7532 86.1829 40.4015 86.1829 43.0569C86.1829 43.5125 86.4935 43.598 86.9007 43.6193C86.9352 43.6193 86.956 43.6407 86.956 43.6763V43.961C86.956 43.961 86.9352 44.0109 86.9007 44.0109H81.9034C81.9034 44.0109 81.8551 43.9966 81.8551 43.961V43.6692C81.8551 43.6692 81.8689 43.6193 81.9034 43.6193C82.2071 43.5837 82.5867 43.5268 82.5867 43.1423C82.5867 39.2055 82.5867 35.2686 82.5867 31.3389C82.5867 31.0257 82.1243 30.9474 81.8344 30.926C81.8068 30.926 81.793 30.9047 81.793 30.8762V30.5701C81.793 30.5701 81.8068 30.5345 81.8344 30.5345H88.861C88.861 30.5345 88.9024 30.5487 88.9024 30.5772V30.8833C88.9024 30.8833 88.8886 30.926 88.861 30.926C88.5504 30.9758 88.0327 31.1823 88.364 31.5952C88.6332 31.9298 88.9024 32.2573 89.1854 32.5705C90.6211 34.1794 92.0775 35.7883 93.5546 37.3972C93.5684 37.4115 93.596 37.3972 93.596 37.3759H93.5822Z" fill="white" style="fill:white;fill-opacity:1;"/>
<path d="M9.08307 57.5925C9.08307 54.9869 11.0088 53.2285 13.6594 53.2285C15.5851 53.2285 17.221 54.3462 17.5937 55.8911L15.3849 56.3253C15.1779 55.706 14.4531 55.2432 13.6455 55.2432C12.3962 55.2432 11.4851 56.2043 11.4851 57.5925C11.4851 58.9807 12.4307 59.9774 13.7353 59.9774C14.7706 59.9774 15.6265 59.3224 15.6956 58.4254L12.9277 58.4112V56.9589H17.9871C18.2839 59.9418 16.4548 62.0063 13.6525 62.0063C11.0019 62.0063 9.07617 60.1981 9.07617 57.5925H9.08307Z" fill="white" style="fill:white;fill-opacity:1;"/>
<path d="M24.7376 53.3926H28.2647L30.8117 61.7931H28.3407L27.9541 60.5117H25.0275L24.641 61.7931H22.1699L24.7307 53.3926H24.7376ZM27.4917 58.7532L26.5598 55.4927H26.4494L25.5176 58.7532H27.4986H27.4917Z" fill="white" style="fill:white;fill-opacity:1;"/>
<path d="M35.7607 53.3926H38.1628V59.6787H41.6761V61.7931H35.7607V53.3926Z" fill="white" style="fill:white;fill-opacity:1;"/>
<path d="M46.7627 53.3926H49.1647V59.6787H52.678V61.7931H46.7627V53.3926Z" fill="white" style="fill:white;fill-opacity:1;"/>
<path d="M57.7725 53.3926H64.0399V55.3432H60.0917V56.7528H63.8259V58.3617H60.0917V59.8496H64.1503V61.8002H57.7656V53.3997L57.7725 53.3926Z" fill="white" style="fill:white;fill-opacity:1;"/>
<path d="M69.3135 53.3919H73.4204C75.4152 53.3919 76.7335 54.5452 76.7335 56.2538C76.7335 57.6277 75.8707 58.5888 74.6835 58.8095L74.5938 58.8309L76.9958 61.7853H74.3246L72.3022 59.016H71.7224V61.7853H69.3204V53.3848L69.3135 53.3919ZM72.9993 57.4142C73.7586 57.4142 74.3315 56.9941 74.3315 56.2893C74.3315 55.5846 73.7655 55.1717 72.9993 55.1717H71.7155V57.4142H72.9993Z" fill="white" style="fill:white;fill-opacity:1;"/>
<path d="M83.8427 58.9234L81.0127 53.3848H83.5045L84.9816 56.7663H85.0989L86.4863 53.3848H89.0126L86.2516 58.9234V61.7853H83.8496V58.9234H83.8427Z" fill="white" style="fill:white;fill-opacity:1;"/>
</g>
<defs>
<clipPath id="clip0_323_2232">
<rect width="98" height="62" fill="white" style="fill:white;fill-opacity:1;"/>
</clipPath>
</defs>
</svg>
