<svg width="44" height="44" viewBox="0 0 44 44" fill="none" xmlns="http://www.w3.org/2000/svg">
<path d="M20.4577 0C21.49 0 22.5222 0 23.5511 0C24.256 0.096827 24.9675 0.170282 25.6691 0.29382C29.6911 0.99832 33.299 2.62435 36.3456 5.34552C42.4087 10.7578 44.9175 17.5491 43.7015 25.5757C42.8497 31.1983 40.0436 35.7993 35.5572 39.2951C30.3392 43.3618 24.4097 44.7742 17.9055 43.6022C13.4726 42.8042 9.66097 40.7408 6.47739 37.5656C3.21698 34.3135 1.15584 30.4104 0.34074 25.8695C0.203776 25.0949 0.11358 24.3169 0 23.539C0 22.5073 0 21.4756 0 20.4472C0.0968769 19.7427 0.17371 19.0315 0.297312 18.3304C1.08903 13.8095 3.07334 9.89305 6.29032 6.61763C9.56743 3.27876 13.5193 1.17194 18.1327 0.343903C18.9044 0.20701 19.6827 0.113521 20.4577 0ZM15.1629 17.4522C20.745 13.3989 26.3038 9.36217 31.8926 5.30545C31.769 5.22866 31.7088 5.18859 31.6487 5.1552C28.2613 3.2387 24.6301 2.38729 20.735 2.6377C17.4713 2.84805 14.4647 3.83969 11.692 5.55587C11.4415 5.70946 11.3714 5.83967 11.4782 6.13015C11.7154 6.77121 11.9058 7.43231 12.1196 8.08339C13.1285 11.1919 14.1407 14.3004 15.1663 17.4556L15.1629 17.4522ZM24.2159 14.0833C29.8114 18.1467 35.3601 22.1734 40.9222 26.2168C42.5023 19.8028 40.3643 11.7561 34.1341 6.8814C30.8536 9.26201 27.5698 11.6493 24.2126 14.0867L24.2159 14.0833ZM23.8251 41.3017C32.23 40.5305 38.1762 34.5205 40.1271 28.8411C36.8366 26.4505 33.5395 24.0598 30.2156 21.6459C28.0776 28.2234 25.9563 34.7476 23.8251 41.3051V41.3017ZM15.5671 27.0849C13.4291 20.5106 11.3146 13.9999 9.18661 7.46236C9.09975 7.52914 9.04296 7.5692 8.99285 7.61595C3.49759 12.858 1.55003 19.1884 3.14349 26.6141C3.22032 26.9747 3.35061 27.0949 3.72809 27.0915C7.50963 27.0748 11.2878 27.0815 15.0694 27.0815H15.5671V27.0849ZM4.17573 29.7159C4.46302 30.2868 4.69352 30.8077 4.97747 31.2985C8.48174 37.3251 13.683 40.7141 20.6548 41.3518C20.9989 41.3819 21.1225 41.2683 21.2194 40.9612C22.3051 37.5789 23.4075 34.2033 24.5032 30.8244C24.6201 30.4671 24.7303 30.1065 24.854 29.7159H4.17239H4.17573ZM21.9744 27.0849C23.1068 27.0849 24.2359 27.0782 25.3684 27.0882C25.6189 27.0882 25.7425 27.0248 25.8261 26.7643C26.5142 24.6174 27.2157 22.4739 27.9206 20.3337C27.9841 20.1367 27.9774 20.0031 27.7836 19.8662C25.9363 18.5374 24.0956 17.2018 22.2583 15.8596C22.0846 15.7327 21.961 15.7094 21.7739 15.8462C19.9399 17.1918 18.0993 18.5307 16.2519 19.8562C16.0482 20.0031 16.0281 20.1367 16.0983 20.3537C16.7965 22.4806 17.4946 24.6108 18.1761 26.7443C18.263 27.0214 18.3966 27.0882 18.6638 27.0849C19.7662 27.0715 20.8686 27.0782 21.971 27.0782L21.9744 27.0849Z" fill="white" style="fill:white;fill-opacity:1;"/>
</svg>
