<svg width="34" height="34" viewBox="0 0 34 34" fill="none" xmlns="http://www.w3.org/2000/svg">
<path fill-rule="evenodd" clip-rule="evenodd" d="M17 34C26.3887 34 34 26.3887 34 17C34 7.61133 26.3887 0 17 0C7.61133 0 0 7.61133 0 17C0 26.3887 7.61133 34 17 34ZM21.876 6.91602C21.8193 6.61914 21.7891 6.3125 21.7891 6H18.0459L18.041 20.4668C18.0029 21.4785 17.4473 22.3672 16.6221 22.8906C16.127 23.2031 15.5352 23.3867 14.8994 23.3867C14.0439 23.3867 13.165 22.9414 12.5527 22.2734C12.0625 21.7383 11.7432 21.0605 11.7432 20.3535C11.7432 19.5176 12.0957 18.7598 12.665 18.2109C13.2344 17.6621 14.0215 17.3223 14.8896 17.3223C15.2139 17.3223 15.5273 17.375 15.8203 17.4629V13.7773C15.5166 13.7383 15.208 13.7129 14.8896 13.7129C11.0908 13.709 8 16.6875 8 20.3535C8 22.6016 9.16309 24.5918 10.9443 25.7949C12.0615 26.5508 13.4277 27 14.8945 27C18.6934 27 21.7891 24.0156 21.7891 20.3535V13.0156C23.2568 14.0312 25.0576 14.6309 27 14.6309V11.8262V11.0215C26.3135 11.0215 25.6582 10.8926 25.0576 10.6602C24.7432 10.5371 24.4434 10.3848 24.1621 10.207C22.9883 9.4707 22.1436 8.29102 21.876 6.91602Z" fill="white" style="fill:white;fill-opacity:1;"/>
</svg>
